<svg xmlns="http://www.w3.org/2000/svg" xmlns:xlink="http://www.w3.org/1999/xlink" viewBox="0 0 32 32" width="24" height="24" style="" filter="none">
    
    <g>
    <path d="M8.509 7.957c2.027-1.635 4.634-2.624 7.472-2.624 0.007 0 0.013 0 0.020 0h-0.001c2.833 0 5.437 0.981 7.491 2.624l1.937-1.937 1.885 1.885-1.937 1.937c1.635 2.033 2.624 4.646 2.624 7.489 0 6.627-5.373 12-12 12s-12-5.373-12-12c0-2.844 0.989-5.456 2.642-7.513l-0.018 0.023-1.937-1.936 1.885-1.885 1.937 1.937zM16 26.667c5.155 0 9.333-4.179 9.333-9.333s-4.179-9.333-9.333-9.333v0c-5.155 0-9.333 4.179-9.333 9.333s4.179 9.333 9.333 9.333v0zM17.333 16h4l-6.667 8.667v-6h-4l6.667-8.673v6.007zM10.667 1.333h10.667v2.667h-10.667v-2.667z" fill="rgba(249,206,69,1)"></path>
    </g>
  </svg>